<svg xmlns="http://www.w3.org/2000/svg"><symbol id="speaker" viewBox="0 0 254.1 149.7"><path fill="#2e3192" d="M254.1 127.1h-25a102.1 102.1 0 1 0-204.1 0H0A127.2 127.2 0 0 1 127.1 0c70 0 127 57 127 127.1z"/><path fill="#2e3192" d="M207.2 127.1h-15.8a64.4 64.4 0 1 0-128.7 0H46.9a80.2 80.2 0 1 1 160.3 0z"/><path fill="#2e3192" d="M175.3 127.1h-9.5a38.8 38.8 0 1 0-77.5 0h-9.5a48.3 48.3 0 1 1 96.5 0z"/><circle cx="127.1" cy="127.1" r="22.6" fill="#2e3192"/></symbol><symbol id="headphones" viewBox="0 0 254.1 228.7"><path fill="#2e3192" d="M254.1 127.1h-25a102.1 102.1 0 1 0-204.1 0H0A127.2 127.2 0 0 1 127.1 0c70 0 127 57 127 127.1zM0 127.1h58.7v101.59H0zm195.5 0h58.7v101.59h-58.7z"/></symbol><symbol id="error" viewBox="0 0 350.6 350.6"><path fill="#ed1c24" d="M0 0h350.6v350.59H0z"/><path fill="#fff" d="M148.5 21.9h53.6v214.11h-53.6zm0 253.1h53.6v53.61h-53.6z"/></symbol><symbol id="hamburger" viewBox="0 0 264.6 222.4"><path fill="#fff" d="M0 89h264.6v44.48H0zm0 88.9h264.6v44.48H0zM0 0h264.6v44.48H0z"/></symbol><symbol id="facebook" viewBox="0 0 350.6 350.6"><path fill="#fff" d="M269.5 0H81.1A81.3 81.3 0 0 0 0 81.1v188.4a81.3 81.3 0 0 0 81.1 81.1h102.3V213.5h-43.2v-50.8h44.6c0-39.8-1.9-61.3 13.7-85.7C223.2 38.8 294 54.9 294 54.9v46.7c-46.5 0-54.6.9-54.6 24.5v36.6H294l-10.3 50.8h-42.6v137.1h28.4a81.3 81.3 0 0 0 81.1-81.1V81.1A81.3 81.3 0 0 0 269.5 0z"/></symbol><symbol id="cart" viewBox="0 0 385.3 350.6"><path fill="none" stroke="#fff" stroke-miterlimit="10" stroke-width="25" d="M0 12.5h52.1l59.3 283.9h217.5"/><path fill="none" stroke="#fff" stroke-miterlimit="10" stroke-width="25" d="M95.5 218.8h240L370.1 43H58.8m10.5 56.5H361m-14.2 61.8H83.6M164.5 43v175.8M262.1 43v175.8"/><circle cx="110" cy="317.2" r="20.9" fill="none" stroke="#fff" stroke-miterlimit="10" stroke-width="25"/><circle cx="328.9" cy="317.2" r="20.9" fill="none" stroke="#fff" stroke-miterlimit="10" stroke-width="25"/></symbol></svg>