<svg id="Layer_1" data-name="Layer 1" xmlns="http://www.w3.org/2000/svg" width="312.6" height="63.1" viewBox="0 0 312.6 63.1"><title>Artboard 11</title><path d="M35.4,61.8V38.2H15.7V61.8H0V0H15.7V23.3H35.4V0H51V61.8Z" fill="#fff"/><path d="M81.3,14.4H51v9.2H77.9V38.2H51V61.8H35.4V0H81.3" fill="#fff"/><path d="M91.3,23.5h9.4V38.6h15V23.5H125V61.8h-9.3V46.7h-15V61.8H91.3Z" fill="#fff"/><path d="M131.2,23.5h25.4v8.3h-16v6.9h14.7v8.2H140.6v6.9h16.7v8H131.2Z" fill="#fff"/><path d="M161.8,23.5h13.4c11.3,0,20,8.3,20,19.1s-7.8,19.2-20,19.2H161.8ZM175,53.3c6,0,10.6-4.2,10.6-10.7S181.6,32,175,32h-3.8V53.3Z" fill="#fff"/><path d="M201.6,23.5h24.8v8.3H211V40h14.2v8.2H211V61.8h-9.4Z" fill="#fff"/><path d="M251.3,22.2c12.1,0,20.7,9,20.7,20.5s-8.6,20.4-20.7,20.4-20.6-9-20.6-20.4S239.2,22.2,251.3,22.2Zm0,32c6.8,0,11.1-5.1,11.1-11.5s-4.3-11.6-11.1-11.6-11.1,5.1-11.1,11.6S244.5,54.2,251.3,54.2Z" fill="#fff"/><path d="M278.5,23.5h9.9l14.9,22.7V23.5h9.3V61.8h-9.8L287.9,39V61.8h-9.4Z" fill="#fff"/><circle cx="240.2" cy="13.9" r="5.2" fill="#fff"/><circle cx="261.7" cy="13.9" r="5.2" fill="#fff"/></svg>